<?xml version="1.0" encoding="UTF-8"?><svg id="_图层_1" xmlns="http://www.w3.org/2000/svg" viewBox="0 0 600 600"><defs><style>.cls-1{fill:#ff5a00;}</style></defs><g><path d="m202.1,333.2c1.18,0,2.17.08,2.97.24.8.16,1.46.4,1.99.72.84.53,1.51,1.26,1.98,2.17.47.92.71,1.93.71,3.03,0,2.08-.63,3.64-1.9,4.67-1.26,1.03-3.18,1.55-5.76,1.55h-7.13v-12.37h7.13Zm-.26,1.84h-4.53v8.66h4.53c2.01,0,3.45-.34,4.3-1.02.85-.68,1.28-1.8,1.28-3.36s-.43-2.61-1.29-3.28c-.86-.67-2.29-1-4.28-1Z"/><path d="m213.54,345.57v-12.37h9.95c.92,0,1.58.19,1.99.56.4.38.61.99.61,1.83v2.76c0,.84-.2,1.44-.61,1.81-.4.37-1.07.56-1.99.56h-1.64l5.46,4.85h-3.12l-4.93-4.85h-3.38v4.85h-2.34Zm8.92-10.56h-6.58v3.99h6.58c.52,0,.87-.08,1.05-.26.18-.17.27-.5.27-1v-1.48c0-.46-.1-.78-.29-.97-.19-.19-.54-.29-1.04-.29Z"/><path d="m231.94,345.57h-2.32v-12.34h2.32v12.34Z"/><path d="m240.77,345.57l-7.13-12.37h2.51l5.54,9.95,5.32-9.95h2.31l-6.77,12.37h-1.78Z"/><path d="m251.07,345.57v-12.37h12.45v1.84h-10.12v3.18h6.1v1.84h-6.1v3.71h10.23v1.81h-12.57Z"/><path d="m281.39,335.04v10.53h-2.32v-10.53h-5.84v-1.84h14.04v1.84h-5.87Z"/><path d="m289.01,345.57v-12.34h2.34v4.96h9.86v-4.96h2.34v12.34h-2.34v-5.51h-9.86v5.51h-2.34Z"/><path d="m307.51,345.57v-12.37h12.46v1.84h-10.12v3.18h6.1v1.84h-6.1v3.71h10.23v1.81h-12.57Z"/><path d="m331.89,345.57v-12.37h12.31v1.84h-9.98v3.82h5.63v1.81h-5.63v4.9h-2.34Z"/><path d="m348.32,333.2v10.5h9.03v-10.5h2.37v9.45c0,1.14-.21,1.91-.63,2.32-.42.4-1.22.61-2.4.61h-7.67c-1.18,0-1.98-.2-2.4-.61-.42-.41-.63-1.18-.63-2.31v-9.45h2.34Z"/><path d="m369.64,335.04v10.53h-2.32v-10.53h-5.84v-1.84h14.04v1.84h-5.87Z"/><path d="m379.6,333.2v10.5h9.03v-10.5h2.37v9.45c0,1.14-.21,1.91-.63,2.32-.42.4-1.22.61-2.4.61h-7.67c-1.18,0-1.98-.2-2.4-.61-.42-.41-.63-1.18-.63-2.31v-9.45h2.34Z"/><path d="m394.98,345.57v-12.37h9.95c.92,0,1.58.19,1.99.56.4.38.61.99.61,1.83v2.76c0,.84-.2,1.44-.61,1.81-.4.37-1.07.56-1.99.56h-1.64l5.46,4.85h-3.12l-4.93-4.85h-3.38v4.85h-2.34Zm8.92-10.56h-6.58v3.99h6.58c.52,0,.87-.08,1.05-.26.18-.17.27-.5.27-1v-1.48c0-.46-.1-.78-.29-.97s-.54-.29-1.04-.29Z"/><path d="m411.12,345.57v-12.37h12.45v1.84h-10.12v3.18h6.1v1.84h-6.1v3.71h10.23v1.81h-12.57Z"/></g><g><path d="m152.89,276.12c-1.89-3.27-6.06-4.39-9.33-2.5-2.45,1.41-3.69,4.11-3.37,6.75l-9.08,5.24c-.06-.04-.11-.09-.17-.13h0c-.29-.21-.62-.39-.96-.55h0l-35.03-20.23-.12-.07c-.17-.09-.35-.17-.53-.25v-10.44c2.45-1.04,4.16-3.46,4.16-6.29,0-3.77-3.06-6.83-6.83-6.83s-6.83,3.06-6.83,6.83c0,2.83,1.72,5.25,4.16,6.29v10.45c-.19.08-.37.16-.55.26l-35.96,20.76-.07.05c-.12.08-.24.17-.36.27l-8.96-5.17c.32-2.64-.92-5.34-3.37-6.75-3.27-1.89-7.45-.77-9.33,2.5-1.89,3.27-.77,7.45,2.5,9.33,2.45,1.41,5.41,1.14,7.53-.46l9.09,5.25c-.02.2-.03.41-.03.61v40.95c0,2.4,1.3,4.64,3.38,5.84l35.52,20.51.09.05c.98.53,2.08.81,3.2.81s2.22-.28,3.23-.82l35.44-20.46.05-.03c2.14-1.19,3.47-3.45,3.47-5.9v-40.96c0-.27-.02-.53-.05-.79l9.07-5.24c2.12,1.6,5.08,1.87,7.53.46,3.27-1.89,4.39-6.06,2.5-9.33Zm-24.43,47c0,1.44-1.21,2.67-3.23,3.28l-30.98,9.72c-.81.24-1.69.36-2.61.36s-1.8-.12-2.61-.36l-.07-.02-30.99-9.72c-1.98-.62-3.16-1.83-3.16-3.25v-15.18h73.65v15.18Z"/><path d="m58.55,324.49l31,9.72c1.3.38,2.88.37,4.13,0l30.97-9.71c1.2-.36,1.83-.97,1.83-1.39v-13.21H56.78v13.21c0,.39.55.99,1.77,1.37Zm1.49-11.58h63.17v7.43c0,.89-.9,1.66-2.23,2.06l-.05.02-27.21,8.53h-.04c-.61.19-1.31.3-2.05.3s-1.44-.1-2.06-.28h-.04s-27.2-8.54-27.2-8.54l-.12-.04c-1.3-.41-2.17-1.17-2.17-2.04v-7.43Z"/></g><path class="cls-1" d="m248.09,299.76c0,7.91-3.29,13.78-9.88,17.6-3.66,2.12-9.56,3.19-17.68,3.19h-25.56v-41.09h28.03c7.38,0,13.25,1.51,17.6,4.54,4.99,3.5,7.49,8.76,7.49,15.77Zm-13.06-.16c0-6.9-3.98-10.35-11.95-10.35h-15.37v21.18h10.75c5.15,0,8.92-.56,11.31-1.67,3.5-1.59,5.26-4.64,5.26-9.16Z"/><path class="cls-1" d="m298.27,289.09h-32.01v7.09h25.08v9.88h-25.08v14.49h-12.74v-41.09h44.76v9.64Z"/><g><path d="m303.69,320.88v-41.09h33.12c3.08,0,5.31.63,6.67,1.89,1.36,1.26,2.04,3.29,2.04,6.08v9.17c0,2.77-.68,4.79-2.04,6.05-1.36,1.26-3.58,1.89-6.67,1.89h-6.03l18.78,16.02h-10.19l-16.72-16.02h-12.09v16.02h-6.88Zm30.44-35.77h-23.56v14.42h23.56c1.71,0,2.88-.31,3.5-.93.62-.62.93-1.71.93-3.27v-5.99c0-1.56-.32-2.65-.95-3.29-.64-.63-1.79-.95-3.48-.95Z"/><path d="m351.09,289.51c0-3.73.67-6.28,2-7.66,1.33-1.37,3.88-2.06,7.64-2.06h28.42c3.71,0,6.23.68,7.56,2.04,1.33,1.36,2,3.92,2,7.68v21.65c0,3.78-.67,6.35-2,7.7-1.34,1.35-3.86,2.02-7.56,2.02h-28.42c-3.76,0-6.31-.69-7.64-2.06-1.34-1.37-2-3.93-2-7.66v-21.65Zm6.84,25.66h34.02v-29.78h-34.02v29.78Z"/><path d="m404.44,320.88v-41.09h33.12c3.08,0,5.31.63,6.67,1.89,1.36,1.26,2.04,3.29,2.04,6.08v4.78c0,2.2-.55,3.85-1.65,4.94-1.1,1.09-2.83,1.78-5.19,2.06,2.31.29,4.06,1.11,5.27,2.47,1.21,1.36,1.81,3.22,1.81,5.58v5.25c0,2.72-.94,4.74-2.82,6.06-1.88,1.32-4.74,1.98-8.57,1.98h-30.67Zm34.79-27.87v-4.12c0-1.35-.29-2.28-.88-2.8-.58-.52-1.69-.78-3.32-.78h-23.71v11.35h23.71c1.58,0,2.68-.27,3.28-.82.61-.54.91-1.49.91-2.84Zm.35,17.38v-3.42c0-1.87-.33-3.16-.99-3.87-.66-.71-1.85-1.07-3.56-1.07h-23.71v13.22h23.71c1.74,0,2.93-.35,3.58-1.05.65-.7.97-1.97.97-3.81Z"/><path d="m451.93,289.51c0-3.73.67-6.28,2-7.66,1.33-1.37,3.88-2.06,7.64-2.06h28.42c3.71,0,6.23.68,7.56,2.04,1.33,1.36,2,3.92,2,7.68v21.65c0,3.78-.67,6.35-2,7.7-1.34,1.35-3.86,2.02-7.56,2.02h-28.42c-3.76,0-6.3-.69-7.64-2.06-1.34-1.37-2-3.93-2-7.66v-21.65Zm6.84,25.66h34.02v-29.78h-34.02v29.78Z"/><path d="m528.73,285.39v35.49h-6.84v-35.49h-18.78v-5.6h44.47v5.6h-18.86Z"/></g><g><path d="m563.44,293.96c-3.92,0-7.1-3.18-7.1-7.1s3.18-7.1,7.1-7.1,7.1,3.19,7.1,7.1-3.18,7.1-7.1,7.1Zm0-12.71c-3.09,0-5.61,2.52-5.61,5.61s2.52,5.61,5.61,5.61,5.61-2.51,5.61-5.61-2.52-5.61-5.61-5.61Z"/><path d="m567.11,289.99h-1.42l-2.16-2.71h-1.3v2.71h-1.05v-6.42h2.99c1.44.04,2.19.65,2.25,1.82,0,1.05-.57,1.66-1.7,1.82l2.38,2.78Zm-4.87-5.46v1.79h1.76c.93,0,1.38-.32,1.36-.96-.02-.53-.47-.81-1.36-.83h-1.76Z"/></g></svg>