<?xml version="1.0" encoding="UTF-8"?><svg id="_图层_1" xmlns="http://www.w3.org/2000/svg" viewBox="0 0 600 600"><defs><style>.cls-1{fill:#fff;}.cls-2{fill:#ff5a00;}</style></defs><rect class="cls-1" width="600" height="600"/><g><path class="cls-2" d="m476.05,231.37c-5.42-9.39-17.43-12.61-26.82-7.19-7.03,4.06-10.6,11.82-9.67,19.4l-26.09,15.07c-.16-.12-.32-.24-.48-.36h0c-.84-.59-1.77-1.12-2.76-1.59h0l-100.66-58.13-.35-.2c-.49-.26-1-.5-1.51-.72v-30.02c7.04-2.98,11.97-9.96,11.97-18.08,0-10.84-8.79-19.63-19.63-19.63s-19.63,8.79-19.63,19.63c0,8.12,4.93,15.09,11.97,18.08v30.03c-.53.23-1.07.47-1.58.75l-103.35,59.67-.21.13c-.36.24-.7.5-1.03.76l-25.76-14.87c.93-7.58-2.64-15.34-9.67-19.4-9.39-5.42-21.4-2.2-26.82,7.18-5.42,9.39-2.21,21.4,7.19,26.82,7.03,4.06,15.54,3.27,21.64-1.32l26.11,15.07c-.05.58-.09,1.17-.09,1.75v117.69c0,6.89,3.72,13.33,9.72,16.78l102.08,58.94.24.14c2.81,1.52,5.99,2.32,9.2,2.32s6.38-.8,9.28-2.37l101.84-58.79.15-.09c6.15-3.43,9.97-9.92,9.97-16.95v-117.7c0-.77-.05-1.52-.14-2.28l26.07-15.05c6.1,4.6,14.6,5.39,21.64,1.32,9.39-5.42,12.61-17.43,7.19-26.82Zm-70.22,135.08c0,4.14-3.47,7.66-9.29,9.42l-89.05,27.93c-2.34.69-4.86,1.03-7.5,1.03s-5.16-.35-7.5-1.03l-.2-.06-89.06-27.93c-5.68-1.78-9.07-5.27-9.07-9.35v-43.63h211.65v43.63Z"/><path class="cls-2" d="m204.94,370.4l89.09,27.94c3.72,1.1,8.29,1.08,11.88.02l89-27.91c3.45-1.04,5.26-2.8,5.26-3.99v-37.96h-200.32v37.96c0,1.13,1.59,2.84,5.1,3.94Zm4.29-33.28h181.55v21.34c0,2.54-2.59,4.76-6.41,5.91l-.14.04-78.19,24.53-.13.04c-1.76.51-3.77.81-5.9.81s-4.15-.29-5.91-.81l-.11-.04-78.16-24.51-.35-.11c-3.73-1.17-6.24-3.35-6.24-5.86v-21.35Z"/></g></svg>